<svg width="200" height="200" viewBox="0 0 200 200" fill="none" xmlns="http://www.w3.org/2000/svg">
<rect width="200" height="200" rx="20" fill="#FFD600"/>
<path fill-rule="evenodd" clip-rule="evenodd" d="M136.957 114.222C139.181 115.407 141.995 115.105 143.565 113.133C144.559 111.885 145.515 110.609 146.429 109.304C162.268 86.6835 156.77 55.5062 134.15 39.6673C111.53 23.8284 80.3525 29.3258 64.5136 51.9461C40.4167 86.3601 45.2356 141.021 47.3905 157.609C47.7462 160.347 50.3105 162.133 53.0054 161.531C57.6954 160.482 65.4068 158.567 74.5883 155.555C76.8205 154.823 78.1724 152.604 78.1323 150.255C78.0892 147.729 78.2859 145.163 78.7409 142.582C82.5771 120.826 103.323 106.3 125.079 110.136C129.344 110.888 133.331 112.29 136.957 114.222ZM93.9997 97.008C103.048 103.344 115.519 101.145 121.854 92.0965C128.19 83.0484 125.991 70.5774 116.943 64.2419C107.895 57.9063 95.4238 60.1053 89.0882 69.1534C82.7527 78.2015 84.9516 90.6724 93.9997 97.008Z" fill="#191500"/>
<path d="M113.792 174.148C127.389 176.546 140.356 167.467 142.753 153.869C145.151 140.272 136.072 127.306 122.474 124.908C108.877 122.51 95.9106 131.59 93.513 145.187C91.1155 158.784 100.195 171.751 113.792 174.148Z" fill="#191500"/>
</svg>
