<svg xmlns="http://www.w3.org/2000/svg" width="895" height="580" viewBox="0 0 895 580" fill="none"><path d="M364 579C295.5 574.7 234.3 556 181.9 523.2C136.6 494.9 102.3 458.1 78.6 412.1C71.5 398.3 70.7 396 70.2 389.9C69.8 383.6 70 382.4 73 376.4C75.5 371.3 77.2 369.2 80.8 366.9C89.6 361.3 99.1 360.4 107.5 364.4C114.6 367.8 117.8 371.7 125.9 387.3C137.9 410.5 150.9 427.9 170.1 446.5C203.3 478.5 244.6 500.8 297.1 514.9C341.5 526.8 401.9 529.4 449.8 521.5C473.6 517.6 497.7 511.2 519 503.3C541.6 494.9 562.2 482.9 582.7 466.4C598.5 453.5 618 446.2 645.8 442.6C659.9 440.8 673 440.5 673 442C673 443.7 664.1 458 658.7 465C631.2 500.4 587.4 533.4 546 549.8C507.7 565 469.3 574.1 428 577.9C411.7 579.4 380 579.9 364 579Z" fill="currentcolor"></path><path d="M604 425.5C570.2 420.8 541.6 406.4 525.5 385.8C511.6 368.1 504.5 343.3 506.9 321.5C508.3 309.6 510.2 303.4 516.1 292C524.8 275.2 538.5 261.9 556.5 253C571.9 245.4 582.3 242.9 601 242.3C615.1 241.9 617.3 242.1 626.1 244.3C653.3 251.4 672.7 267.3 687.9 295.2C692 302.8 699 320.9 699 324.2C699 326.3 690.9 333 684.1 336.5C680.9 338.1 676.3 339.4 672.8 339.7C664.1 340.5 658.2 337.2 647.8 325.7C630.1 306.1 623.9 300.5 617.6 298.1C601.5 292.1 584.5 295.7 571.6 307.9C558.4 320.5 554.8 334.9 561.5 348.5C569.5 364.9 597.6 377 627.5 377C665.2 376.9 701.4 359.8 731.7 327.7C742.1 316.7 745.2 312.8 753.9 300.1C777.7 265.7 797 220.9 807.9 175C813.2 153.2 814 150.8 817.8 148.7C824.5 144.8 833.4 146.7 837.1 152.7C839.1 156 839.2 157 838.6 167.8C833.9 245.9 800.9 326.4 754 374C725.5 402.9 693.2 420.2 657.8 425.4C645 427.3 617.6 427.4 604 425.5Z" fill="currentcolor"></path><path d="M18.6 365.4C11.6 363.2 3.69998 355.1 1.59998 348C-0.400024 341.3 -0.400024 338.7 1.59998 332.1C4.49998 322.2 22.4 305.8 41 296.1C70.1 280.9 104.1 277.8 135.2 287.6C151.3 292.7 157 296.7 161.2 305.7C163.8 311.2 164.2 313 163.8 318.3C163.1 328.8 157.5 337.1 148.1 341.3C141 344.5 134.4 344.1 121.5 339.5C110.9 335.7 110.1 335.6 98 335.6C87.3 335.7 84.4 336.1 77.5 338.3C66.9 341.8 58.9 346.7 48.9 355.8C44.4 359.9 39.3 363.8 37.6 364.5C32.3 366.7 24 367.1 18.6 365.4Z" fill="currentcolor"></path><path d="M206.9 193.5C202.5 191.1 201 186.4 201 175.3C201 152.3 208.8 132.2 223.4 117.5C234.7 106 245.5 101 259 101C272.3 101 283.1 105.5 293.8 115.5C309.2 129.8 316.7 147.8 317.7 172.6C318.2 183.4 318 186.2 316.6 188.8C314.6 192.7 310.3 195 305.1 195C301.8 195 300.1 194.2 295.1 190C281.8 179 272.3 175 259.1 175C248 175 233.1 180.7 227.4 187.1C226.4 188.3 223.7 190.6 221.6 192.1C217.2 195.4 211.3 195.9 206.9 193.5Z" fill="currentcolor"></path><path d="M432.8 193.4C427 190.3 425.3 182.9 426.8 167C429.8 136.1 447.6 110.7 471.5 102.9C477.3 101 479.8 100.8 488.3 101.3C497.2 101.8 499.1 102.2 505.9 105.6C517.2 111.1 528.1 122.4 534.2 135C540.3 147.5 542.9 157.8 543.7 172C544.1 181.2 543.9 184.2 542.7 187.2C540 193.6 531.5 196.9 525.7 193.9C524.5 193.2 521.6 191 519.2 188.8C505.3 176.1 486.9 171.7 470.7 177.1C463.1 179.6 460 181.5 450.7 189.1C444.5 194.2 442.9 195 439.5 195C437.3 194.9 434.3 194.3 432.8 193.4Z" fill="currentcolor"></path><path d="M866.6 135C852.8 126.4 845.9 123.2 837.1 120.9C824.1 117.4 813.1 119.7 789.9 130.6C783.6 133.6 777.5 136 776.4 136C772.7 135.9 766 132.1 764 128.8C760.3 122.7 761.4 116.8 770.9 93.2C780.8 68.4 800.3 34.7 818.2 11.5C827.2 -0.200026 835.7 -2.70003 843.6 4.19997C849.6 9.49997 868.9 45.2 878.3 68.5C887.4 91.1 895.5 120.4 894.7 128.3C894 135.7 888 141 880.3 141C877.3 141 874.1 139.6 866.6 135Z" fill="currentcolor"></path></svg>